<svg width="180" height="180" viewBox="0 0 180 180" xmlns="http://www.w3.org/2000/svg">
  <!-- Background -->
  <rect width="180" height="180" rx="20" ry="20" fill="#f0f9f0"/>

  <!-- Robot head -->
  <rect x="20" y="20" width="140" height="140" rx="20" ry="20" fill="#f0f9f0" stroke="#5c8c5a" stroke-width="4"/>

  <!-- Panel lines -->
  <line x1="35" y1="35" x2="145" y2="35" stroke="#5c8c5a" stroke-width="2" opacity="0.3"/>
  <line x1="35" y1="145" x2="145" y2="145" stroke="#5c8c5a" stroke-width="2" opacity="0.3"/>

  <!-- Eyes -->
  <rect x="45" y="65" width="20" height="12" rx="6" fill="#0f172a" stroke="#5c8c5a" stroke-width="2"/>
  <rect x="115" y="65" width="20" height="12" rx="6" fill="#0f172a" stroke="#5c8c5a" stroke-width="2"/>

  <!-- Eye LEDs -->
  <circle cx="50" cy="70" r="2" fill="#5c8c5a"/>
  <circle cx="60" cy="70" r="2" fill="#5c8c5a"/>
  <circle cx="120" cy="70" r="2" fill="#5c8c5a"/>
  <circle cx="130" cy="70" r="2" fill="#5c8c5a"/>

  <!-- Happy mouth -->
  <rect x="55" y="110" width="70" height="12" rx="6" fill="#5c8c5a"/>

  <!-- Mouth segments -->
  <rect x="60" y="113" width="8" height="6" fill="#ffffff" opacity="0.8"/>
  <rect x="70" y="113" width="8" height="6" fill="#ffffff" opacity="0.6"/>
  <rect x="80" y="113" width="8" height="6" fill="#ffffff" opacity="0.8"/>
  <rect x="90" y="113" width="8" height="6" fill="#ffffff" opacity="0.6"/>
  <rect x="100" y="113" width="8" height="6" fill="#ffffff" opacity="0.8"/>
  <rect x="110" y="113" width="8" height="6" fill="#ffffff" opacity="0.6"/>

  <!-- Status LEDs -->
  <circle cx="40" cy="40" r="4" fill="#5c8c5a"/>
  <circle cx="140" cy="40" r="4" fill="#5c8c5a"/>

  <!-- Antenna -->
  <rect x="85" y="5" width="10" height="20" fill="#5c8c5a"/>
  <circle cx="90" cy="5" r="5" fill="#5c8c5a"/>

  <!-- Additional tech details for larger size -->
  <rect x="30" y="50" width="15" height="3" fill="#5c8c5a" opacity="0.5"/>
  <rect x="30" y="55" width="10" height="3" fill="#5c8c5a" opacity="0.3"/>
  <rect x="135" y="50" width="15" height="3" fill="#5c8c5a" opacity="0.5"/>
  <rect x="140" y="55" width="10" height="3" fill="#5c8c5a" opacity="0.3"/>
</svg>