<svg width="16" height="16" viewBox="0 0 16 16" xmlns="http://www.w3.org/2000/svg">
  <!-- Robot head -->
  <rect x="1" y="1" width="14" height="14" rx="2" ry="2" fill="#f0f9f0" stroke="#5c8c5a" stroke-width="0.5"/>

  <!-- Eyes -->
  <rect x="4" y="5" width="2" height="1.5" rx="0.5" fill="#0f172a"/>
  <rect x="10" y="5" width="2" height="1.5" rx="0.5" fill="#0f172a"/>

  <!-- Eye LEDs -->
  <circle cx="4.5" cy="5.5" r="0.2" fill="#5c8c5a"/>
  <circle cx="5.5" cy="5.5" r="0.2" fill="#5c8c5a"/>
  <circle cx="10.5" cy="5.5" r="0.2" fill="#5c8c5a"/>
  <circle cx="11.5" cy="5.5" r="0.2" fill="#5c8c5a"/>

  <!-- Happy mouth -->
  <rect x="5" y="10" width="6" height="1" rx="0.5" fill="#5c8c5a"/>

  <!-- Mouth segments -->
  <rect x="5.5" y="10.2" width="0.8" height="0.6" fill="#ffffff" opacity="0.8"/>
  <rect x="6.5" y="10.2" width="0.8" height="0.6" fill="#ffffff" opacity="0.6"/>
  <rect x="7.5" y="10.2" width="0.8" height="0.6" fill="#ffffff" opacity="0.8"/>
  <rect x="8.5" y="10.2" width="0.8" height="0.6" fill="#ffffff" opacity="0.6"/>
  <rect x="9.5" y="10.2" width="0.8" height="0.6" fill="#ffffff" opacity="0.8"/>

  <!-- Status LEDs -->
  <circle cx="3" cy="3" r="0.4" fill="#5c8c5a"/>
  <circle cx="13" cy="3" r="0.4" fill="#5c8c5a"/>

  <!-- Antenna -->
  <rect x="7.5" y="0" width="1" height="1.5" fill="#5c8c5a"/>
  <circle cx="8" cy="0" r="0.4" fill="#5c8c5a"/>
</svg>